<mxfile host="app.diagrams.net" modified="2024-01-03T12:50:39.931Z" agent="Mozilla/5.0 (Macintosh; Intel Mac OS X 10_15_7) AppleWebKit/537.36 (KHTML, like Gecko) Chrome/120.0.0.0 Safari/537.36" etag="AmcXPdggzZPr-xXrjbjq" version="22.1.16" type="github">
  <diagram name="第 1 页" id="rKivnOdDJAFtJSjHdzWO">
    <mxGraphModel dx="901" dy="570" grid="1" gridSize="10" guides="1" tooltips="1" connect="1" arrows="1" fold="1" page="1" pageScale="1" pageWidth="827" pageHeight="1169" math="1" shadow="0">
      <root>
        <mxCell id="0" />
        <mxCell id="1" parent="0" />
        <mxCell id="RI4B-3obot8MsITl3LLx-1" value="策略目标网络&lt;br&gt;&lt;br&gt;&lt;br&gt;" style="whiteSpace=wrap;html=1;aspect=fixed;dashed=1;" parent="1" vertex="1">
          <mxGeometry x="330" y="490" width="80" height="80" as="geometry" />
        </mxCell>
        <mxCell id="RI4B-3obot8MsITl3LLx-2" value="Q目标网络&lt;br&gt;&lt;br&gt;&lt;br&gt;" style="whiteSpace=wrap;html=1;aspect=fixed;dashed=1;" parent="1" vertex="1">
          <mxGeometry x="250" y="280" width="80" height="80" as="geometry" />
        </mxCell>
        <mxCell id="RI4B-3obot8MsITl3LLx-3" style="edgeStyle=orthogonalEdgeStyle;rounded=0;orthogonalLoop=1;jettySize=auto;html=1;entryX=0.5;entryY=1;entryDx=0;entryDy=0;" parent="1" source="RI4B-3obot8MsITl3LLx-4" target="RI4B-3obot8MsITl3LLx-9" edge="1">
          <mxGeometry relative="1" as="geometry" />
        </mxCell>
        <mxCell id="RI4B-3obot8MsITl3LLx-4" value="Q网络" style="whiteSpace=wrap;html=1;aspect=fixed;dashed=1;" parent="1" vertex="1">
          <mxGeometry x="200" y="320" width="80" height="80" as="geometry" />
        </mxCell>
        <mxCell id="RI4B-3obot8MsITl3LLx-5" value="策略网络" style="whiteSpace=wrap;html=1;aspect=fixed;dashed=1;" parent="1" vertex="1">
          <mxGeometry x="280" y="530" width="80" height="80" as="geometry" />
        </mxCell>
        <mxCell id="RI4B-3obot8MsITl3LLx-7" style="edgeStyle=orthogonalEdgeStyle;rounded=0;orthogonalLoop=1;jettySize=auto;html=1;entryX=0.5;entryY=1;entryDx=0;entryDy=0;" parent="1" source="RI4B-3obot8MsITl3LLx-8" target="RI4B-3obot8MsITl3LLx-4" edge="1">
          <mxGeometry relative="1" as="geometry" />
        </mxCell>
        <mxCell id="RI4B-3obot8MsITl3LLx-8" value="\(S,S^{\prime}&lt;br&gt;\)" style="ellipse;whiteSpace=wrap;html=1;aspect=fixed;" parent="1" vertex="1">
          <mxGeometry x="200" y="650" width="80" height="80" as="geometry" />
        </mxCell>
        <mxCell id="RI4B-3obot8MsITl3LLx-9" value="\(Q_w(s,a)\)" style="rounded=0;whiteSpace=wrap;html=1;" parent="1" vertex="1">
          <mxGeometry x="200" y="190" width="80" height="60" as="geometry" />
        </mxCell>
        <mxCell id="RI4B-3obot8MsITl3LLx-10" value="" style="endArrow=classic;html=1;rounded=0;exitX=0.5;exitY=0;exitDx=0;exitDy=0;entryX=0.5;entryY=1;entryDx=0;entryDy=0;" parent="1" source="RI4B-3obot8MsITl3LLx-8" target="RI4B-3obot8MsITl3LLx-5" edge="1">
          <mxGeometry width="50" height="50" relative="1" as="geometry">
            <mxPoint x="390" y="490" as="sourcePoint" />
            <mxPoint x="440" y="440" as="targetPoint" />
          </mxGeometry>
        </mxCell>
        <mxCell id="RI4B-3obot8MsITl3LLx-11" value="" style="endArrow=classic;html=1;rounded=0;exitX=0.5;exitY=0;exitDx=0;exitDy=0;entryX=0.5;entryY=1;entryDx=0;entryDy=0;" parent="1" source="RI4B-3obot8MsITl3LLx-5" target="RI4B-3obot8MsITl3LLx-4" edge="1">
          <mxGeometry width="50" height="50" relative="1" as="geometry">
            <mxPoint x="390" y="520" as="sourcePoint" />
            <mxPoint x="440" y="470" as="targetPoint" />
          </mxGeometry>
        </mxCell>
        <mxCell id="2qncGRn--N-9Oo_SDniq-1" value="\(a = \mu_\theta&lt;br&gt;(s) \)" style="rounded=0;whiteSpace=wrap;html=1;" vertex="1" parent="1">
          <mxGeometry x="290" y="400" width="80" height="60" as="geometry" />
        </mxCell>
        <mxCell id="2qncGRn--N-9Oo_SDniq-2" value="\(replaybuffer = \{\\(s, a, r, s\prime&lt;br&gt;\\)\}\)" style="rounded=0;whiteSpace=wrap;html=1;" vertex="1" parent="1">
          <mxGeometry x="440" y="190" width="200" height="60" as="geometry" />
        </mxCell>
        <mxCell id="2qncGRn--N-9Oo_SDniq-3" value="优化Q网络" style="rounded=0;whiteSpace=wrap;html=1;" vertex="1" parent="1">
          <mxGeometry x="440" y="310" width="200" height="60" as="geometry" />
        </mxCell>
        <mxCell id="2qncGRn--N-9Oo_SDniq-4" value="优化策略网络" style="rounded=0;whiteSpace=wrap;html=1;" vertex="1" parent="1">
          <mxGeometry x="440" y="490" width="200" height="60" as="geometry" />
        </mxCell>
      </root>
    </mxGraphModel>
  </diagram>
</mxfile>
